<svg width="113" height="28" viewBox="0 0 113 28" fill="none" xmlns="http://www.w3.org/2000/svg">
<path d="M4.392 16.112H9.416V18H1.8V16.272L6.792 8.72H1.8V6.832H9.416V8.56L4.392 16.112ZM19.5628 13.376C19.5628 13.696 19.5414 13.984 19.4988 14.24H13.0188C13.0721 14.88 13.2961 15.3813 13.6908 15.744C14.0854 16.1067 14.5708 16.288 15.1468 16.288C15.9788 16.288 16.5708 15.9307 16.9228 15.216H19.3388C19.0828 16.0693 18.5921 16.7733 17.8668 17.328C17.1414 17.872 16.2508 18.144 15.1948 18.144C14.3414 18.144 13.5734 17.9573 12.8908 17.584C12.2188 17.2 11.6908 16.6613 11.3068 15.968C10.9334 15.2747 10.7467 14.4747 10.7467 13.568C10.7467 12.6507 10.9334 11.8453 11.3068 11.152C11.6801 10.4587 12.2028 9.92533 12.8748 9.552C13.5468 9.17867 14.3201 8.992 15.1948 8.992C16.0374 8.992 16.7894 9.17333 17.4508 9.536C18.1228 9.89867 18.6401 10.416 19.0028 11.088C19.3761 11.7493 19.5628 12.512 19.5628 13.376ZM17.2428 12.736C17.2321 12.16 17.0241 11.7013 16.6188 11.36C16.2134 11.008 15.7174 10.832 15.1308 10.832C14.5761 10.832 14.1068 11.0027 13.7228 11.344C13.3494 11.6747 13.1201 12.1387 13.0348 12.736H17.2428ZM22.3338 8.08C21.9391 8.08 21.6084 7.95733 21.3418 7.712C21.0858 7.456 20.9578 7.14133 20.9578 6.768C20.9578 6.39467 21.0858 6.08533 21.3418 5.84C21.6084 5.584 21.9391 5.456 22.3338 5.456C22.7284 5.456 23.0538 5.584 23.3098 5.84C23.5764 6.08533 23.7098 6.39467 23.7098 6.768C23.7098 7.14133 23.5764 7.456 23.3098 7.712C23.0538 7.95733 22.7284 8.08 22.3338 8.08ZM23.4378 9.136V18H21.1978V9.136H23.4378ZM28.2589 10.976V15.264C28.2589 15.5627 28.3282 15.7813 28.4669 15.92C28.6162 16.048 28.8615 16.112 29.2029 16.112H30.2429V18H28.8349C26.9469 18 26.0029 17.0827 26.0029 15.248V10.976H24.9469V9.136H26.0029V6.944H28.2589V9.136H30.2429V10.976H28.2589ZM40.094 13.376C40.094 13.696 40.0727 13.984 40.03 14.24H33.55C33.6033 14.88 33.8273 15.3813 34.222 15.744C34.6167 16.1067 35.102 16.288 35.678 16.288C36.51 16.288 37.102 15.9307 37.454 15.216H39.87C39.614 16.0693 39.1233 16.7733 38.398 17.328C37.6727 17.872 36.782 18.144 35.726 18.144C34.8727 18.144 34.1047 17.9573 33.422 17.584C32.75 17.2 32.222 16.6613 31.838 15.968C31.4647 15.2747 31.278 14.4747 31.278 13.568C31.278 12.6507 31.4647 11.8453 31.838 11.152C32.2113 10.4587 32.734 9.92533 33.406 9.552C34.078 9.17867 34.8513 8.992 35.726 8.992C36.5687 8.992 37.3207 9.17333 37.982 9.536C38.654 9.89867 39.1713 10.416 39.534 11.088C39.9073 11.7493 40.094 12.512 40.094 13.376ZM37.774 12.736C37.7633 12.16 37.5553 11.7013 37.15 11.36C36.7447 11.008 36.2487 10.832 35.662 10.832C35.1073 10.832 34.638 11.0027 34.254 11.344C33.8807 11.6747 33.6513 12.1387 33.566 12.736H37.774ZM43.969 10.512C44.257 10.0427 44.6303 9.67467 45.089 9.408C45.5583 9.14133 46.0917 9.008 46.689 9.008V11.36H46.097C45.393 11.36 44.8597 11.5253 44.497 11.856C44.145 12.1867 43.969 12.7627 43.969 13.584V18H41.729V9.136H43.969V10.512ZM52.2618 10.976H50.7098V18H48.4378V10.976H47.4298V9.136H48.4378V8.688C48.4378 7.6 48.7471 6.8 49.3658 6.288C49.9844 5.776 50.9178 5.536 52.1658 5.568V7.456C51.6218 7.44533 51.2431 7.536 51.0298 7.728C50.8164 7.92 50.7098 8.26667 50.7098 8.768V9.136H52.2618V10.976ZM53.1374 13.536C53.1374 12.64 53.3134 11.8453 53.6654 11.152C54.028 10.4587 54.5134 9.92533 55.1214 9.552C55.74 9.17867 56.428 8.992 57.1854 8.992C57.8467 8.992 58.4227 9.12533 58.9134 9.392C59.4147 9.65867 59.8147 9.99467 60.1134 10.4V9.136H62.3694V18H60.1134V16.704C59.8254 17.12 59.4254 17.4667 58.9134 17.744C58.412 18.0107 57.8307 18.144 57.1694 18.144C56.4227 18.144 55.74 17.952 55.1214 17.568C54.5134 17.184 54.028 16.6453 53.6654 15.952C53.3134 15.248 53.1374 14.4427 53.1374 13.536ZM60.1134 13.568C60.1134 13.024 60.0067 12.56 59.7934 12.176C59.58 11.7813 59.292 11.4827 58.9294 11.28C58.5667 11.0667 58.1774 10.96 57.7614 10.96C57.3454 10.96 56.9614 11.0613 56.6094 11.264C56.2574 11.4667 55.9694 11.7653 55.7454 12.16C55.532 12.544 55.4254 13.0027 55.4254 13.536C55.4254 14.0693 55.532 14.5387 55.7454 14.944C55.9694 15.3387 56.2574 15.6427 56.6094 15.856C56.972 16.0693 57.356 16.176 57.7614 16.176C58.1774 16.176 58.5667 16.0747 58.9294 15.872C59.292 15.6587 59.58 15.36 59.7934 14.976C60.0067 14.5813 60.1134 14.112 60.1134 13.568ZM67.9491 18.144C67.2238 18.144 66.5731 18.016 65.9971 17.76C65.4211 17.4933 64.9625 17.136 64.6211 16.688C64.2905 16.24 64.1091 15.744 64.0771 15.2H66.3331C66.3758 15.5413 66.5411 15.824 66.8291 16.048C67.1278 16.272 67.4958 16.384 67.9331 16.384C68.3598 16.384 68.6905 16.2987 68.9251 16.128C69.1705 15.9573 69.2931 15.7387 69.2931 15.472C69.2931 15.184 69.1438 14.9707 68.8451 14.832C68.5571 14.6827 68.0931 14.5227 67.4531 14.352C66.7918 14.192 66.2478 14.0267 65.8211 13.856C65.4051 13.6853 65.0425 13.424 64.7331 13.072C64.4345 12.72 64.2851 12.2453 64.2851 11.648C64.2851 11.1573 64.4238 10.7093 64.7011 10.304C64.9891 9.89867 65.3945 9.57867 65.9171 9.344C66.4505 9.10933 67.0745 8.992 67.7891 8.992C68.8451 8.992 69.6878 9.25867 70.3171 9.792C70.9465 10.3147 71.2931 11.024 71.3571 11.92H69.2131C69.1811 11.568 69.0318 11.2907 68.7651 11.088C68.5091 10.8747 68.1625 10.768 67.7251 10.768C67.3198 10.768 67.0051 10.8427 66.7811 10.992C66.5678 11.1413 66.4611 11.3493 66.4611 11.616C66.4611 11.9147 66.6105 12.144 66.9091 12.304C67.2078 12.4533 67.6718 12.608 68.3011 12.768C68.9411 12.928 69.4691 13.0933 69.8851 13.264C70.3011 13.4347 70.6585 13.7013 70.9571 14.064C71.2665 14.416 71.4265 14.8853 71.4371 15.472C71.4371 15.984 71.2931 16.4427 71.0051 16.848C70.7278 17.2533 70.3225 17.5733 69.7891 17.808C69.2665 18.032 68.6531 18.144 67.9491 18.144ZM76.6679 18.144C75.9425 18.144 75.2919 18.016 74.7159 17.76C74.1399 17.4933 73.6812 17.136 73.3399 16.688C73.0092 16.24 72.8279 15.744 72.7959 15.2H75.0519C75.0945 15.5413 75.2599 15.824 75.5479 16.048C75.8465 16.272 76.2145 16.384 76.6519 16.384C77.0785 16.384 77.4092 16.2987 77.6439 16.128C77.8892 15.9573 78.0119 15.7387 78.0119 15.472C78.0119 15.184 77.8625 14.9707 77.5639 14.832C77.2759 14.6827 76.8119 14.5227 76.1719 14.352C75.5105 14.192 74.9665 14.0267 74.5399 13.856C74.1239 13.6853 73.7612 13.424 73.4519 13.072C73.1532 12.72 73.0039 12.2453 73.0039 11.648C73.0039 11.1573 73.1425 10.7093 73.4199 10.304C73.7079 9.89867 74.1132 9.57867 74.6359 9.344C75.1692 9.10933 75.7932 8.992 76.5079 8.992C77.5639 8.992 78.4065 9.25867 79.0359 9.792C79.6652 10.3147 80.0119 11.024 80.0759 11.92H77.9319C77.8999 11.568 77.7505 11.2907 77.4839 11.088C77.2279 10.8747 76.8812 10.768 76.4439 10.768C76.0385 10.768 75.7239 10.8427 75.4999 10.992C75.2865 11.1413 75.1799 11.3493 75.1799 11.616C75.1799 11.9147 75.3292 12.144 75.6279 12.304C75.9265 12.4533 76.3905 12.608 77.0199 12.768C77.6599 12.928 78.1879 13.0933 78.6039 13.264C79.0199 13.4347 79.3772 13.7013 79.6759 14.064C79.9852 14.416 80.1452 14.8853 80.1559 15.472C80.1559 15.984 80.0119 16.4427 79.7239 16.848C79.4465 17.2533 79.0412 17.5733 78.5079 17.808C77.9852 18.032 77.3719 18.144 76.6679 18.144ZM90.3626 9.136V18H88.1066V16.88C87.8186 17.264 87.44 17.568 86.9706 17.792C86.512 18.0053 86.0106 18.112 85.4666 18.112C84.7733 18.112 84.16 17.968 83.6266 17.68C83.0933 17.3813 82.672 16.9493 82.3626 16.384C82.064 15.808 81.9146 15.1253 81.9146 14.336V9.136H84.1546V14.016C84.1546 14.72 84.3306 15.264 84.6826 15.648C85.0346 16.0213 85.5146 16.208 86.1226 16.208C86.7413 16.208 87.2266 16.0213 87.5786 15.648C87.9306 15.264 88.1066 14.72 88.1066 14.016V9.136H90.3626ZM97.4848 9.008C98.5408 9.008 99.3941 9.344 100.045 10.016C100.695 10.6773 101.021 11.6053 101.021 12.8V18H98.7808V13.104C98.7808 12.4 98.6048 11.8613 98.2528 11.488C97.9008 11.104 97.4208 10.912 96.8128 10.912C96.1941 10.912 95.7034 11.104 95.3408 11.488C94.9888 11.8613 94.8128 12.4 94.8128 13.104V18H92.5728V9.136H94.8128V10.24C95.1114 9.856 95.4901 9.55733 95.9488 9.344C96.4181 9.12 96.9301 9.008 97.4848 9.008ZM106.623 8.992C107.284 8.992 107.866 9.12533 108.367 9.392C108.868 9.648 109.263 9.984 109.551 10.4V9.136H111.807V18.064C111.807 18.8853 111.642 19.616 111.311 20.256C110.98 20.9067 110.484 21.4187 109.823 21.792C109.162 22.176 108.362 22.368 107.423 22.368C106.164 22.368 105.13 22.0747 104.319 21.488C103.519 20.9013 103.066 20.1013 102.959 19.088H105.183C105.3 19.4933 105.551 19.8133 105.935 20.048C106.33 20.2933 106.804 20.416 107.359 20.416C108.01 20.416 108.538 20.2187 108.943 19.824C109.348 19.44 109.551 18.8533 109.551 18.064V16.688C109.263 17.104 108.863 17.4507 108.351 17.728C107.85 18.0053 107.274 18.144 106.623 18.144C105.876 18.144 105.194 17.952 104.575 17.568C103.956 17.184 103.466 16.6453 103.103 15.952C102.751 15.248 102.575 14.4427 102.575 13.536C102.575 12.64 102.751 11.8453 103.103 11.152C103.466 10.4587 103.951 9.92533 104.559 9.552C105.178 9.17867 105.866 8.992 106.623 8.992ZM109.551 13.568C109.551 13.024 109.444 12.56 109.231 12.176C109.018 11.7813 108.73 11.4827 108.367 11.28C108.004 11.0667 107.615 10.96 107.199 10.96C106.783 10.96 106.399 11.0613 106.047 11.264C105.695 11.4667 105.407 11.7653 105.183 12.16C104.97 12.544 104.863 13.0027 104.863 13.536C104.863 14.0693 104.97 14.5387 105.183 14.944C105.407 15.3387 105.695 15.6427 106.047 15.856C106.41 16.0693 106.794 16.176 107.199 16.176C107.615 16.176 108.004 16.0747 108.367 15.872C108.73 15.6587 109.018 15.36 109.231 14.976C109.444 14.5813 109.551 14.112 109.551 13.568Z" fill="#0081CC"/>
<path d="M1 27.5C9.5 23.8333 40.9 17.6 98.5 22" stroke="#0081CC"/>
</svg>
